<svg width="1277" height="32" viewBox="0 0 1277 32" fill="none" xmlns="http://www.w3.org/2000/svg">
<path d="M20.396 1.99782C20.396 1.57448 20.271 1.27223 20.146 0.788819H20.021C19.585 1.87673 19.148 2.42019 17.901 2.42019C16.778 2.42019 15.905 1.75563 15.406 1.27223C15.406 1.33229 11.601 5.50179 11.601 5.50179L11.788 5.68294L12.848 4.47491C13.659 5.07941 14.408 5.80404 16.217 5.80404V16.499L8.545 3.50713C7.921 2.54032 6.923 1.0901 5.115 1.0901C3.056 1.0901 1.435 2.84257 1.684 5.74301H1.809C1.996 5.01741 2.433 4.11163 3.306 4.11163C4.054 4.11163 4.616 4.77619 4.99 5.38069V9.54923C2.62 9.54923 1.247 10.6371 1.247 12.4497C1.247 13.2344 1.809 14.8667 3.43 15.1079V14.9878C3.181 14.7456 2.994 14.5644 2.994 14.1411C2.994 13.4165 3.555 13.0542 4.491 13.0542C4.678 13.0542 4.865 13.1142 4.99 13.1142V18.5518C2.183 18.6138 0 20.064 0 22.6622C0 25.0793 2.183 26.2272 4.428 26.1061V25.985C2.994 25.8039 2.308 25.1393 2.308 24.1124C2.308 23.0245 3.118 22.42 4.178 22.42C5.239 22.42 5.988 23.0846 6.674 23.8102L10.478 19.7017L10.291 19.5196L9.293 20.6075C7.859 19.3384 6.923 18.795 5.239 18.5538V5.74301L15.905 23.7482H16.466V5.80404C18.586 5.68294 20.396 4.2337 20.396 1.99782ZM24.013 23.6891L29.751 19.2174L29.564 18.9761L26.57 21.2721L23.078 18.6138V16.9824L29.065 12.873L26.071 8.34216L19.398 11.9072V20.3062L18.088 21.2721L18.275 21.4532L19.522 20.4864L24.013 23.6891ZM23.14 16.6802V10.3349L26.009 14.7466L23.14 16.6802ZM50.21 9.85245L49.336 10.517L46.841 8.46326L43.91 11.0004L45.095 12.0883V21.6344L42.1 19.6407V11.9062L43.16 11.1816L40.104 8.40223L37.234 10.9404L38.42 12.0273V21.2721L38.233 21.3932L35.426 19.3995V11.8461C35.426 10.0937 34.491 9.5502 33.368 8.88563C32.37 8.28113 31.871 7.73766 31.871 6.89194C31.871 5.92513 32.744 5.50179 33.056 5.38069C32.058 5.32063 29.251 6.34751 29.189 8.82557C29.127 10.0946 29.813 10.6371 30.436 11.2416C31.122 11.8461 31.746 12.4506 31.746 13.4775V20.9098L30.374 21.9366L30.561 22.1178L31.871 21.151L35.239 23.8102L38.482 21.6344L42.038 23.8102L48.961 19.8219V11.1816L50.521 10.0336L50.208 9.85245H50.21ZM73.412 2.60135L72.102 3.74932L69.17 1.27223L65.178 4.41388V1.51441H64.929V22.4811C64.492 22.42 63.557 22.1788 62.559 21.9967V4.47588C62.559 3.20682 61.623 1.45435 59.253 1.45435C58.2447 1.44112 57.2719 1.81508 56.5473 2.49452C55.8227 3.17397 55.4052 4.10364 55.386 5.08038H55.511C55.636 4.29473 56.197 3.63016 56.945 3.63016C57.756 3.63016 58.442 4.11357 58.442 5.80501V10.8202C56.197 10.9413 54.825 12.2704 54.825 13.7207C54.825 14.5664 55.386 16.0767 57.07 16.1377V16.0166C56.509 15.7744 56.384 15.4722 56.384 15.1709C56.384 14.4453 57.132 14.2041 58.13 14.2041H58.38V22.2399C56.446 22.9044 55.573 24.1134 55.573 25.6838C55.573 27.7985 57.32 29.491 59.939 29.491C61.748 29.491 63.058 29.1887 64.742 28.8264C66.114 28.5241 67.549 28.2219 68.359 28.2219C69.357 28.2219 69.794 28.6443 69.794 29.3699C69.794 30.2766 69.42 30.699 68.921 30.8811V31.0003C71.104 30.5769 72.351 29.3689 72.351 27.4953C72.351 25.5627 70.418 24.3537 68.297 24.3537C67.174 24.3537 65.179 24.716 63.557 25.0793C61.748 25.5016 60.127 25.6828 59.565 25.6828C58.629 25.6828 57.507 25.2604 57.507 24.1124C57.507 23.0245 58.442 22.1788 60.687 22.1788C61.935 22.1788 63.12 22.36 64.617 22.7223C66.239 23.0846 67.299 23.507 68.734 23.507C70.667 23.507 72.227 22.8434 72.227 20.1241V4.05254L73.661 2.78348L73.412 2.60135ZM67.985 11.0004C67.611 11.3627 67.237 11.665 66.551 11.665C65.802 11.665 65.428 11.3027 65.116 11.0004V4.71613L66.052 3.99151L67.985 5.56282V11.0004ZM67.985 14.021C67.673 13.7197 67.237 13.4174 66.551 13.4174C65.865 13.4174 65.366 13.7798 65.116 14.021V11.3637C65.428 11.6059 65.865 11.9682 66.551 11.9682C67.237 11.9682 67.673 11.6659 67.985 11.3637V14.0229V14.021ZM67.985 20.3053C67.985 21.3321 67.424 22.4811 66.052 22.4811C65.802 22.4811 65.303 22.42 65.116 22.42V14.3232C65.428 14.021 65.865 13.6587 66.551 13.6587C67.237 13.6587 67.611 13.9609 67.985 14.3232V20.3053ZM79.212 23.6891L85.636 19.8219V11.3637L81.458 8.4032L75.033 11.9682V20.3673L73.786 21.3331L73.91 21.5152L74.97 20.6685L79.212 23.6891ZM78.775 19.3394V10.2748L82.019 12.5708V21.5743L78.775 19.3394ZM97.924 8.58338C97.424 8.94569 96.988 9.12685 96.489 9.12685C95.99 9.12685 95.366 8.82557 95.055 8.40223C95.055 8.46229 92.685 10.8793 92.685 10.8793L90.315 8.40223L86.385 11.0004L86.51 11.2426L87.57 10.5771L89.004 12.0883V20.3053L87.32 21.5743L87.508 21.7555L88.381 21.151L91.561 23.7492L95.616 21.151L95.491 20.9698L94.431 21.5743L92.809 20.1241V11.1215C93.495 11.8461 94.244 12.4506 95.117 12.4506C96.614 12.4506 97.737 10.5771 97.924 8.58338ZM113.142 20.7286L111.957 21.4532L105.283 11.8461L105.658 11.3627C106.406 11.7861 107.03 12.3896 108.402 12.3896C109.774 12.3896 111.521 11.0004 111.708 8.40223C111.334 8.88563 110.647 9.4291 109.525 9.4291C108.714 9.4291 107.903 8.88563 107.404 8.40223L102.851 14.8677L108.839 23.7492L113.205 20.9698L113.142 20.7286ZM105.034 20.9708L104.036 21.6344L102.664 20.3053V0.607662L97.674 3.93048C98.235 4.1126 98.922 4.41485 98.922 5.68391V20.3053L97.238 21.5743L97.425 21.7555L98.298 21.151L101.229 23.7492L105.221 21.211L105.034 20.9708ZM134.286 3.20585C134.286 0.728756 131.854 -0.0569002 129.796 0.00316231V0.24535C131.043 0.366444 131.979 0.84985 131.979 1.63454C131.979 2.17898 131.542 2.9036 130.357 2.9036C129.359 2.9036 127.8 2.36013 126.24 1.87673C124.556 1.33229 122.997 0.788819 121.687 0.788819C119.13 0.788819 117.134 2.66238 117.134 4.95832C117.134 6.83091 118.631 7.43541 119.192 7.6776L119.255 7.55651C118.881 7.31432 118.631 7.01207 118.631 6.22738C118.631 5.56282 119.13 4.65607 120.44 4.65607C121.625 4.65607 123.184 5.19954 125.305 5.74398C127.114 6.22738 129.047 6.71079 130.107 6.83091V10.8803L128.112 12.5107L130.107 14.2031V19.7618C129.047 20.3663 127.862 20.5465 126.802 20.5465C124.868 20.5465 123.122 20.004 121.687 18.4927L127.114 15.9546V7.0731L120.44 9.91251C121.126 8.22107 122.436 6.95201 123.87 6.10532L123.808 5.98519C119.878 7.01207 116.261 10.517 116.261 14.8677C116.252 16.0473 116.484 17.2171 116.944 18.3095C117.403 19.4018 118.082 20.3952 118.94 21.2321C119.799 22.0691 120.819 22.7332 121.944 23.1859C123.068 23.6387 124.274 23.8713 125.492 23.8703C130.856 23.8703 133.974 19.8219 133.912 15.5322H133.787C132.977 17.1636 131.729 18.7339 130.232 19.5806V14.1421L132.353 12.5107L130.232 10.8793V6.83091C132.29 6.83091 134.286 5.56185 134.286 3.20585ZM123.059 17.4659L121.5 18.2505C120.565 17.0425 119.941 15.4121 119.941 13.2363C119.941 12.3295 120.066 11.1215 120.377 10.2758L123.122 9.06679L123.059 17.4659ZM138.34 2.23807L135.596 4.47394L137.966 7.07213L140.711 4.83626L138.34 2.23807ZM142.582 20.9689L141.584 21.6334L140.212 20.3043V11.4228L141.397 10.516L141.21 10.3349L140.212 11.0595L137.904 8.40126L134.099 10.9394L134.224 11.1816L135.16 10.5761L136.407 12.0874V20.3043L134.723 21.5734L134.91 21.7545L135.783 21.15L138.715 23.7482L142.706 21.2101L142.582 20.9689ZM163.788 20.8487L162.853 21.4523L161.356 20.0631V11.4218L162.541 10.516L162.354 10.3349L161.293 11.1196L158.175 8.40126L154.62 11.0595L151.501 8.40126L148.008 11.0595L145.638 8.40126L141.833 10.9394L141.958 11.1816L142.894 10.5761L144.266 12.0874V20.2442L143.205 21.2711L146.199 23.7482L149.131 21.2101L147.946 20.1231V11.3637L148.757 10.8202L150.94 12.6328V20.2462L149.942 21.273L152.998 23.7501L155.867 21.212L154.682 20.1251V11.3637L155.43 10.7602L157.613 12.6328V20.1251L156.74 21.0318L159.796 23.7501L163.851 21.0919L163.788 20.8487ZM174.828 19.0352L171.834 21.3312L168.341 18.6729V17.0415L174.329 12.9331L171.335 8.40126L164.661 11.9663V20.5465L169.215 23.7482L174.953 19.2774L174.828 19.0352ZM168.341 16.6792V10.3339L171.21 14.7456L168.341 16.6792ZM186.367 15.4702L183.809 13.5976C185.494 12.1474 186.117 10.3349 186.117 9.00576C186.117 8.8246 186.055 8.46132 186.055 8.15907H185.93C185.681 8.8246 184.995 9.42813 183.997 9.42813C182.999 9.42813 182.375 8.88466 181.751 8.2201L175.888 11.3618V15.9536L178.134 17.646C175.888 19.5797 175.452 20.7877 175.452 21.8756C175.452 23.0236 176.138 23.9294 177.26 24.3527L177.385 24.1715C177.073 23.9294 176.824 23.7482 176.824 23.2047C176.824 22.7814 177.26 22.1168 178.258 22.1168C179.568 22.1168 180.317 22.9635 180.753 23.4459C180.753 23.3859 186.367 20.1231 186.367 20.1231V15.4702ZM185.057 11.7241C184.184 13.2353 182.25 14.7456 181.065 15.5913L179.631 14.4434V9.97257C180.192 11.1806 181.377 12.2075 182.874 12.2075C183.809 12.2075 184.371 12.0263 185.057 11.7241ZM182.624 21.7545C181.938 20.3043 180.566 19.2774 178.944 19.2774C178.57 19.2774 177.385 19.2164 176.387 19.8819C177.011 18.9151 178.757 17.1626 181.065 15.8325L182.624 17.1016V21.7545Z" fill="#84848E"/>
<path fill-rule="evenodd" clip-rule="evenodd" d="M331.166 1H334.88V10.795C337.259 8.55141 339.807 7.86747 342.401 8.66378C344.083 9.20942 345.573 10.2036 346.698 11.5322C349.316 14.7262 348.733 20.0485 345.799 22.6341C342.791 25.2846 338.544 25.1693 334.896 22.2369L334.637 24.0805H331.162L331.166 1ZM344.39 16.4767C344.376 15.5674 344.086 14.6821 343.556 13.9312C343.027 13.1803 342.281 12.597 341.411 12.2541C340.542 11.9111 339.587 11.8236 338.667 12.0025C337.746 12.1814 336.901 12.6187 336.235 13.26C335.569 13.9014 335.113 14.7183 334.923 15.609C334.733 16.4997 334.819 17.4248 335.168 18.269C335.517 19.1132 336.115 19.8392 336.887 20.3565C337.659 20.8738 338.571 21.1595 339.51 21.1781C340.481 21.2112 341.439 20.9528 342.253 20.4383C343.067 19.9238 343.696 19.1783 344.056 18.3038C344.295 17.7226 344.409 17.1016 344.39 16.4767ZM236.367 1.35456C239.456 1.35456 242.544 1.35456 245.633 1.41075C247.872 1.44466 249.996 1.87478 251.593 3.56525C254.146 6.26903 253.138 9.92316 249.246 12.0554C249.446 12.1968 249.656 12.3218 249.876 12.4293C252.656 13.5511 254.003 15.3549 253.941 17.9202C253.876 20.5901 252.421 22.6545 249.582 23.4178C247.698 23.9264 245.675 24.0388 243.706 24.1357C242.008 24.2171 240.304 24.2016 238.596 24.1861C237.855 24.1793 237.113 24.1725 236.371 24.1735L236.367 1.35456ZM240.745 13.9967V20.9495C241.438 20.8954 242.131 20.8476 242.825 20.8061C244.384 20.7092 245.889 20.6143 247.366 20.3702C249.042 20.0931 249.795 18.8211 249.741 17.1946C249.687 15.5671 248.799 14.5761 247.181 14.4046C245.712 14.2438 244.231 14.1721 242.701 14.0975C242.049 14.0672 241.397 14.0336 240.745 13.9967ZM242.55 10.7262C243.908 10.6478 245.188 10.5742 246.446 10.3785C247.952 10.1508 248.763 9.11425 248.709 7.59234C248.647 6.12953 247.709 5.28091 246.315 5.10169C245.033 4.93409 243.735 4.87403 242.395 4.813C241.842 4.78684 241.282 4.76069 240.713 4.72678V10.8425C241.343 10.796 241.954 10.7602 242.55 10.7262ZM396.977 25.2914C396.611 25.8397 396.281 26.4287 395.951 27.0158C395.237 28.2868 394.525 29.5539 393.456 30.4113C390.24 32.992 383.622 32.2809 380.067 29.3263L382.314 26.3832C385.128 28.4214 388.059 29.4134 391.163 27.6329C393.093 26.5101 393.093 24.4912 392.989 22.4598C388.302 25.1674 384.144 24.8313 381.491 21.6189C378.839 18.4055 379.071 13.4911 381.901 10.6371C384.731 7.78319 388.97 7.69406 393.074 10.6032L393.313 8.83428H396.977V25.2914ZM393.186 16.375C393.186 13.6257 391.344 11.8268 388.495 11.7851C385.646 11.7444 383.576 13.7226 383.607 16.4448C383.642 19.0643 385.715 20.934 388.483 20.9156C391.387 20.8817 393.193 19.1389 393.186 16.375ZM316.59 11.0789C313.907 7.60106 310.131 7.44025 306.81 10.7049L306.355 8.89144H302.923V24.0204H306.718C306.718 23.2696 306.714 22.5314 306.71 21.801V21.7981C306.7 19.971 306.69 18.1973 306.745 16.4244C306.748 15.4363 306.945 14.4569 307.328 13.5405C308.027 12.0408 309.421 11.6107 311.054 11.8645C312.687 12.1193 313.216 13.3118 313.235 14.7369C313.251 16.7955 313.245 18.855 313.24 20.9175V20.9204C313.237 21.9537 313.235 22.9871 313.235 24.0204H317.193C317.193 23.3452 317.186 22.6835 317.179 22.0325V22.0316C317.158 20.7819 317.163 19.532 317.193 18.2825L317.209 17.6354V17.6334C317.237 16.4196 317.265 15.1883 317.559 14.0297C317.984 12.3654 319.393 11.6737 321.111 11.8306C322.829 11.9885 323.505 13.1287 323.651 14.6245C323.706 15.2096 323.701 15.7938 323.697 16.3779L323.694 16.8691V24.1027H327.412C327.412 22.9335 327.433 21.7681 327.455 20.6056V20.6036C327.504 17.8911 327.553 15.2019 327.331 12.5339C327.115 9.88634 324.972 8.56594 322.189 8.41966C319.791 8.29275 318.007 9.30219 316.59 11.0789ZM280.88 16.5291C280.899 11.7977 277.347 8.46131 272.247 8.43031C267.189 8.40125 263.456 11.7715 263.448 16.4244C263.44 21.0764 267.078 24.5174 272.138 24.5435C277.2 24.5697 280.88 21.211 280.88 16.5291ZM275.472 19.7066C274.618 20.5719 273.454 21.0877 272.22 21.1481V21.1771C269.486 21.1771 267.513 19.2551 267.486 16.5465C267.452 13.7759 269.482 11.756 272.274 11.7899C273.194 11.8453 274.079 12.1542 274.824 12.6803C275.569 13.2065 276.143 13.9278 276.479 14.7596C276.815 15.5913 276.899 16.4987 276.721 17.375C276.542 18.2512 276.109 19.0598 275.472 19.7056V19.7066ZM366.235 17.7855H354.297C354.285 18.5196 354.51 19.239 354.941 19.8427C355.373 20.4463 355.988 20.9038 356.702 21.151C359.111 22.1236 361.08 21.2411 362.934 19.5099L365.501 21.3796C363.184 25.0754 357.613 25.119 354.598 23.5593C350.876 21.6412 349.243 17.43 350.764 13.462C352.173 9.78075 356.756 7.57878 360.934 8.57659C364.69 9.49303 366.864 13.1549 366.235 17.7855ZM362.374 14.8347C362.019 12.3247 360.76 11.2329 358.416 11.2213C356.138 11.2213 354.694 12.4932 354.42 14.8347H362.374ZM300.23 16.4177C300.21 11.7948 296.616 8.45066 291.663 8.42838C286.497 8.40609 282.744 11.8287 282.775 16.5329C282.802 21.0773 286.497 24.5116 291.392 24.5445C296.562 24.5784 300.23 21.1897 300.23 16.4167V16.4177ZM295.954 14.6565C296.182 15.2217 296.29 15.8256 296.272 16.4322C296.288 19.166 294.242 21.1791 291.477 21.1791C290.85 21.1806 290.228 21.0601 289.65 20.8248C289.072 20.5895 288.548 20.2441 288.11 19.8092C287.672 19.3742 287.328 18.8585 287.1 18.2926C286.871 17.7266 286.762 17.122 286.779 16.5145C286.763 13.7768 288.806 11.7648 291.578 11.787C292.522 11.7798 293.445 12.0502 294.227 12.5626C295.008 13.075 295.61 13.8052 295.954 14.6565ZM256.96 1.00678H260.554V24.0398H256.96V1.00775V1.00678ZM369.33 24.1066H372.755C372.814 24.0223 372.861 23.9613 372.896 23.9167C372.956 23.8373 372.983 23.8034 372.983 23.7627C372.995 22.9112 373.001 22.0597 373.008 21.2081C373.02 19.5767 373.032 17.9444 373.083 16.3121C373.172 13.3874 374.913 11.8616 377.894 12.004L379.26 12.0786C379.27 11.8713 379.275 11.6747 379.279 11.4848C379.289 11.0692 379.299 10.6904 379.357 10.3165C379.647 8.46616 378.477 8.06122 377.091 8.50684C376.123 8.81684 375.221 9.31575 374.318 9.81466C373.927 10.0307 373.537 10.2467 373.141 10.4482C373.096 10.1334 373.031 9.6645 372.968 9.20822L372.933 8.9515H369.33V24.1066Z" fill="#84848E"/>
<path fill-rule="evenodd" clip-rule="evenodd" d="M677.922 4.04133C678.466 6.65408 679.008 9.2672 679.548 11.8807C680.449 16.2314 681.352 20.5869 682.257 24.9463C682.588 26.5274 683.291 27.0746 684.621 26.8423C685.228 26.7386 685.599 26.4161 685.656 25.8122C685.682 25.505 685.695 25.1978 685.695 24.8906V7.08166C685.695 6.86854 685.695 6.65542 685.684 6.44325C685.614 5.50245 685.273 5.18469 684.303 5.15301H683.739V4.34085H690.897V5.05029C690.88 5.05989 690.865 5.07237 690.85 5.08389C690.82 5.10693 690.794 5.12709 690.766 5.12805C689.204 5.23461 689.01 5.43141 689.008 6.93093V26.6273C692.27 27.2513 694.228 25.8285 694.772 22.4801C694.871 21.8733 694.924 21.2609 694.979 20.6369L694.98 20.6349V20.633C695.007 20.3249 695.034 20.0138 695.067 19.6999L695.765 19.6663V27.6775H677.15L677.132 27.3146L677.117 27.0141C677.149 26.9911 677.173 26.9709 677.194 26.9527C677.228 26.9239 677.251 26.9047 677.277 26.9009C678.995 26.6724 679.097 26.5476 678.822 24.9146C678.683 24.0986 678.542 23.2826 678.354 22.4762C678.316 22.3073 678.075 22.0625 677.921 22.0577C676.962 22.0368 676.002 22.0304 675.042 22.0385H675.04L674.113 22.0394L674.017 22.529L673.915 23.0417C673.781 23.7213 673.649 24.3885 673.522 25.0577C673.254 26.4929 673.439 26.7194 675.054 26.9009V27.7207H669.965V26.9364C671.698 26.6532 671.87 26.49 672.195 24.8695L673.238 19.6788L673.24 19.6721C674.226 14.7722 675.212 9.87238 676.17 4.96581C676.318 4.20165 676.613 3.89349 677.393 4.03461C677.569 4.04901 677.746 4.05093 677.922 4.04133ZM674.295 20.9105H678.032C677.441 17.5274 676.85 14.1962 676.258 10.865H676.077C675.481 14.1972 674.892 17.5313 674.295 20.9105ZM487.719 4.64325L487.743 5.15398L487.925 5.15301C488.109 5.15109 488.272 5.15013 488.433 5.16645C489.268 5.20773 489.623 5.54565 489.681 6.35397C489.694 6.56709 489.694 6.78022 489.694 6.99238V25.0097C489.694 25.2708 489.689 25.53 489.672 25.7901C489.63 26.3949 489.277 26.7271 488.668 26.8423C487.334 27.0919 486.601 26.5418 486.278 24.9809L483.138 9.83014L481.935 4.08549H480.411L480.391 4.16613C480.368 4.25253 480.35 4.32165 480.336 4.39269C478.962 11.1857 477.593 17.9805 476.228 24.7783C475.889 26.4775 475.788 26.5831 473.968 26.9613V27.6813H479.094V26.9258C479.005 26.9126 478.915 26.8992 478.826 26.8855C478.634 26.8567 478.452 26.8279 478.27 26.8058C477.668 26.7319 477.367 26.3671 477.445 25.8295C477.575 24.9386 477.736 24.0535 477.899 23.1665C477.966 22.8017 478.032 22.4378 478.097 22.0721H482.292L482.454 22.938C482.557 23.4948 482.659 24.0449 482.768 24.594C483.155 26.5341 483.132 26.5754 481.178 26.9527V27.6737H499.777V19.6471L499.199 19.6893C499.099 20.1885 499.021 20.681 498.942 21.1658C498.78 22.1738 498.623 23.1492 498.302 24.0717C497.516 26.3287 495.982 27.0833 493.027 26.6129V7.03557C493.027 5.38917 493.129 5.28069 494.813 5.12517C494.843 5.12134 494.869 5.09733 494.902 5.06661C494.919 5.05029 494.938 5.03205 494.961 5.01381L494.958 4.96389L494.924 4.34853H487.704L487.718 4.64229L487.719 4.64325ZM480.254 10.8324L482.041 20.9124H478.309L480.083 10.8477L480.254 10.8324ZM650.563 15.8321L650.454 15.7975L650.344 15.7639C650.64 15.6855 650.936 15.6055 651.232 15.5239C653.983 14.6964 655.409 12.9233 655.539 10.1575C655.673 7.25734 654.046 5.14053 651.139 4.52037C650.417 4.37738 649.681 4.30851 648.943 4.31493C646.347 4.29957 643.75 4.30245 641.154 4.30533L638.233 4.30629C638.075 4.30629 637.917 4.31589 637.744 4.32741L637.469 4.34373L637.49 4.81893L637.491 4.82565L637.504 5.12229C639.042 5.22021 639.369 5.54757 639.369 6.96645L639.371 8.65414C639.375 13.3668 639.379 18.0794 639.354 22.793C639.349 23.5246 639.236 24.2517 639.019 24.953C638.638 26.1914 637.665 26.8471 636.397 26.8682C635.197 26.8903 634.176 26.2519 633.796 25.0346C633.544 24.1971 633.416 23.3297 633.415 22.458C633.386 17.2721 633.386 12.0967 633.386 6.91558C633.384 5.50245 633.572 5.29701 635.119 5.08677V4.33797H628.063V5.12517L628.695 5.15301C629.544 5.18757 629.889 5.49478 629.987 6.30694C630.013 6.59014 630.022 6.87429 630.013 7.15845C630.017 9.21957 630.015 11.2817 630.013 13.3428C630.011 16.3437 630.008 19.3457 630.022 22.3466C630.037 25.4973 631.707 27.3713 634.821 27.8292C637.885 28.2804 639.86 26.9969 640.347 24.1975C640.449 23.5409 640.496 22.8765 640.486 22.2113C640.495 17.2903 640.495 12.3693 640.495 7.44934C640.483 7.04746 640.503 6.64529 640.556 6.24645C640.646 5.70117 640.915 5.16357 641.547 5.18085C641.769 5.18661 642 5.16357 642.231 5.14053C642.924 5.07045 643.629 4.99941 644.141 5.70405C644.239 5.86821 644.295 6.05157 644.306 6.24069C644.337 6.54694 644.351 6.85414 644.348 7.16133V24.6209C644.348 26.5783 644.293 26.6436 642.351 26.9431V27.7207H649.678V26.9354C649.6 26.9093 649.52 26.8893 649.438 26.8759C647.811 26.778 647.639 26.6129 647.639 25.0519V17.0321C647.639 16.8535 647.649 16.6749 647.66 16.5002L647.671 16.2948C649.888 16.0903 650.734 16.7143 650.922 18.7639C650.989 19.5165 651.024 20.273 651.059 21.0295C651.096 21.833 651.133 22.6375 651.209 23.4372C651.284 24.4452 651.483 25.4426 651.8 26.4065C652.209 27.5441 653.185 27.9761 654.534 27.8705C655.63 27.7841 656.474 27.1639 656.724 26.0647C656.859 25.4685 656.903 24.8551 656.949 24.2292C656.969 23.945 656.99 23.6589 657.019 23.369H655.902C655.902 23.5735 655.907 23.7761 655.912 23.9767C655.925 24.4759 655.937 24.9645 655.87 25.4407C655.844 25.6212 655.65 25.7786 655.456 25.9361C655.37 26.0027 655.288 26.0742 655.211 26.1501C655.154 26.0861 655.096 26.0228 655.037 25.9601C654.887 25.7969 654.737 25.6337 654.606 25.458C654.56 25.3946 654.565 25.2948 654.57 25.1969C654.572 25.1671 654.574 25.1364 654.574 25.1085L654.517 24.1725V24.1697C654.431 22.7585 654.346 21.3473 654.278 19.9361C654.182 17.9498 652.998 16.5002 651.003 15.9636C650.871 15.929 650.739 15.8877 650.563 15.8321ZM651.707 12.7332C651.175 14.6474 649.871 15.4106 647.665 15.1265V5.40261C649.666 4.93509 651.269 5.84037 651.769 7.74981C652.195 9.38807 652.174 11.1052 651.707 12.7332ZM455.978 4.35141V5.08389C457.487 5.29221 457.728 5.49573 458.01 6.84741L460.695 19.8449C460.903 20.85 461.113 21.8551 461.323 22.8612V22.8631C461.669 24.5191 462.015 26.178 462.356 27.8436H463.729C464.657 23.4641 465.579 19.1085 466.497 14.7636H466.683L469.396 27.8599H470.748L470.836 27.4913C470.9 27.2225 470.964 26.9556 471.021 26.6887C472.406 20.2558 473.799 13.8244 475.199 7.39462C475.599 5.5591 475.866 5.32677 477.629 5.07717V4.34085H472.176L472.196 4.72581L472.217 5.11365C473.812 5.24421 474.154 5.67045 473.887 7.08838C473.37 9.83193 472.849 12.5747 472.323 15.3165C472.091 16.5242 471.853 17.7309 471.617 18.9377L471.301 20.5457C471.165 20.4207 471.075 20.2577 471.042 20.0801C470.394 16.9293 469.754 13.7767 469.122 10.6221L468.979 9.91654C468.745 8.7607 468.511 7.60294 468.351 6.43845C468.227 5.54085 468.552 5.26149 469.496 5.15206C469.575 5.14245 469.652 5.12805 469.732 5.11269C469.77 5.105 469.807 5.09764 469.845 5.09061V4.34085H463.42V5.14053C464.36 5.09061 464.763 5.60421 464.93 6.35013C465.11 7.15942 465.276 7.97062 465.424 8.7847C465.478 9.07558 465.553 9.3703 465.628 9.66502C465.805 10.3562 465.982 11.0484 465.885 11.7031C465.561 13.889 465.129 16.0615 464.685 18.2973C464.513 19.1613 464.339 20.0359 464.169 20.9239C464.129 20.7991 464.093 20.6954 464.062 20.6071C464.015 20.485 463.977 20.3599 463.949 20.2327L461.385 6.99717C461.109 5.56581 461.195 5.42278 462.594 5.03206L462.563 4.35141H455.978ZM544.519 5.08293V4.41861C544.535 4.40653 544.55 4.39372 544.565 4.38021C544.595 4.35333 544.622 4.32933 544.647 4.32933C545.49 4.33893 546.334 4.33221 547.179 4.32453C549.093 4.30821 551.009 4.29093 552.902 4.47141C555.858 4.75557 557.511 6.62182 557.754 9.33862C558.009 12.2205 556.628 14.3882 553.903 15.3626C553.648 15.4567 553.387 15.5325 553.084 15.6209C552.931 15.665 552.767 15.713 552.588 15.7677L553.326 15.9809C555.197 16.5185 556.353 17.8845 556.474 19.7489C556.537 20.7041 556.589 21.6612 556.64 22.6164C556.677 23.2913 556.713 23.9642 556.753 24.6362L556.757 24.7092L556.761 24.7908V24.7946C556.774 25.0759 556.788 25.3649 556.891 25.6135C556.982 25.8305 557.266 26.1146 557.46 26.1117C557.653 26.1089 558.015 25.8276 558.051 25.6289C558.142 25.1143 558.178 24.5901 558.216 24.0458C558.231 23.8308 558.246 23.6129 558.265 23.3921H559.249C559.219 23.6753 559.197 23.9585 559.175 24.2407C559.126 24.8772 559.077 25.506 558.933 26.1146C558.671 27.2081 557.816 27.8023 556.706 27.8714C555.386 27.9501 554.396 27.5277 554.039 26.4209C553.671 25.2861 553.517 24.0756 553.393 22.8852C553.325 22.2189 553.301 21.5489 553.277 20.8788C553.247 20.082 553.219 19.2861 553.118 18.4989C552.878 16.6394 551.98 16.0634 549.929 16.3082C549.925 16.3793 549.919 16.4503 549.913 16.5233C549.897 16.6957 549.888 16.8686 549.886 17.0417V24.9866C549.886 26.6263 550.012 26.753 551.685 26.8721C551.767 26.8886 551.847 26.9118 551.925 26.9412V27.6679H544.537V26.9681C544.555 26.9576 544.572 26.9464 544.588 26.9345C544.622 26.9114 544.65 26.8922 544.685 26.8893C546.393 26.7597 546.567 26.5745 546.567 24.8849V7.29094C546.558 5.36037 546.532 5.33158 544.519 5.08293ZM549.949 5.34982V15.1236C552.112 15.4077 553.414 14.6205 553.949 12.7025C554.338 11.2529 554.394 9.74086 554.114 8.26918C553.712 6.0151 552.403 5.09254 549.949 5.34982ZM626.477 24.186C627.728 21.5777 628.015 18.7831 628.133 15.9453C628.086 15.4941 628.045 15.0429 628.005 14.5908V14.5879C627.913 13.5569 627.82 12.5249 627.647 11.5034C627.298 9.46054 626.672 7.48774 625.249 5.86342C623.131 3.43557 619.831 3.47973 617.86 6.01509C617.197 6.87105 616.682 7.82409 616.335 8.8375C614.95 12.9098 614.946 17.0637 615.804 21.233C616.171 23.0071 616.8 24.6996 618.009 26.129C619.973 28.4378 623.064 28.5175 625.102 26.2701C625.659 25.6405 626.122 24.9384 626.477 24.186ZM624.156 18.0343C624.153 17.346 624.151 16.6567 624.151 15.9693L624.269 15.9703C624.269 15.3655 624.275 14.7607 624.28 14.1559C624.294 12.7034 624.308 11.2519 624.242 9.8023C624.181 8.67513 623.983 7.5587 623.651 6.47589C623.375 5.54853 622.569 5.13189 621.535 5.14821C620.5 5.16549 619.844 5.63781 619.531 6.53061C619.321 7.1287 619.117 7.76518 619.11 8.38726C619.043 13.1822 619.019 17.9776 619.04 22.7729C619.04 23.6983 619.306 24.642 619.586 25.5377C619.847 26.3796 620.557 26.8279 621.488 26.8605C622.441 26.8941 623.189 26.4986 623.556 25.6509C623.834 25.0058 624.105 24.3041 624.122 23.6205C624.172 21.7581 624.164 19.8977 624.156 18.0362V18.0343ZM571.203 19.5549C571.298 19.625 571.404 19.6874 571.502 19.745C571.691 19.8573 571.853 19.9524 571.855 20.0503C571.884 22.1114 571.882 24.1735 571.881 26.2586L571.88 27.6794H559.467V26.9018L559.986 26.8701C560.989 26.8049 561.359 26.4631 561.36 25.4925C561.369 19.1738 561.369 12.8561 561.36 6.5383C561.36 5.43141 561.1 5.25189 559.46 5.10213L559.443 4.98789C559.429 4.89765 559.414 4.80549 559.411 4.71237C559.414 4.58661 559.424 4.46085 559.442 4.33605H571.825C571.855 4.47621 571.875 4.61925 571.885 4.76133V4.76613C571.885 7.08454 571.885 9.40294 571.896 11.7127C571.896 12.2119 571.749 12.4413 571.18 12.2637C571.144 11.959 571.109 11.654 571.077 11.3489L571.076 11.3479V11.346C570.999 10.6356 570.922 9.91942 570.794 9.2119C570.679 8.58498 570.48 7.97487 570.203 7.39654C569.532 5.99878 568.376 5.26821 566.748 5.29221C566.327 5.29797 565.905 5.29605 565.469 5.29413L564.784 5.29221V14.9517C565.789 15.1687 566.585 14.8884 566.946 13.9773C567.19 13.3629 567.308 12.6996 567.426 12.0391C567.462 11.8375 567.498 11.6378 567.537 11.4391C567.573 11.2567 567.564 11.0657 567.555 10.8602C567.551 10.7613 567.546 10.6605 567.546 10.5559H568.348V20.5821L567.624 20.6349C567.601 20.4093 567.584 20.1866 567.567 19.9677C567.53 19.4839 567.494 19.0164 567.398 18.5594C567.288 17.9819 567.089 17.4234 566.807 16.9025C566.395 16.1767 565.66 15.9914 564.785 16.1268V26.6417C568.062 27.2081 570.105 25.8669 570.784 22.6922C570.906 22.0826 570.977 21.4615 571.056 20.7703C571.099 20.3901 571.145 19.9879 571.203 19.5549ZM584.523 12.2705H585.212L585.209 4.36197H572.715L572.749 4.87077L572.75 4.87461L572.765 5.0935C574.63 5.3047 574.735 5.42181 574.735 7.21317V25.0241C574.735 26.538 574.51 26.7684 572.936 26.9028C572.911 26.9057 572.886 26.9229 572.849 26.9508C572.826 26.9671 572.799 26.9863 572.763 27.0084C572.776 27.2109 572.789 27.4375 572.8 27.641L572.802 27.6775H585.215V19.7508H584.392C584.392 19.8881 584.399 20.0196 584.405 20.1492C584.419 20.4199 584.432 20.6753 584.38 20.9172C584.319 21.1985 584.264 21.4836 584.21 21.7677C584.04 22.6452 583.87 23.5284 583.52 24.3348C582.619 26.4122 580.417 27.2676 578.119 26.6052V16.1479C579.535 15.9847 580.327 16.5569 580.655 18.0564C580.781 18.6189 580.838 19.1949 580.897 19.7873C580.924 20.0637 580.952 20.3441 580.987 20.6263L581.674 20.5927V10.5089L580.935 10.5463C580.928 11.0071 580.894 11.4669 580.833 11.9239C580.727 12.5981 580.562 13.2625 580.34 13.9101C580.114 14.5111 579.622 14.8941 578.918 15.0161C578.298 15.1245 578.04 15.0122 578.049 14.3249C578.078 12.2743 578.074 10.2257 578.07 8.17702L578.067 6.02374C578.067 5.86246 578.077 5.70214 578.087 5.52838V5.52646L578.1 5.30181C578.376 5.30181 578.643 5.29893 578.905 5.29701C579.414 5.29221 579.901 5.28741 580.389 5.30181C581.546 5.33541 582.533 5.78181 583.124 6.73221C583.559 7.41422 583.878 8.15867 584.068 8.93734C584.24 9.68326 584.322 10.4465 584.404 11.226L584.405 11.2269C584.441 11.5725 584.478 11.9201 584.523 12.2705ZM669.091 27.6929C668.271 27.9655 667.881 27.7505 667.582 27.0151C665.756 22.5319 663.899 18.0612 662.043 13.5905L662.041 13.5857L662.038 13.5789L660.646 10.2247C660.56 9.97655 660.407 9.75465 660.203 9.5815V24.7956C660.203 26.3498 660.529 26.7137 662.132 26.9335V27.6871H657.108V26.9479C658.871 26.6647 659.137 26.3565 659.139 24.6266V7.10086C659.145 6.86407 659.136 6.62715 659.112 6.39141C658.997 5.46021 658.651 5.16741 657.676 5.14629H657.113V4.29381C657.461 4.29381 657.809 4.29285 658.156 4.29093C659.259 4.28075 660.363 4.29035 661.466 4.31973C661.646 4.31973 661.883 4.65669 661.976 4.88613C663.86 9.42694 665.732 13.9706 667.591 18.5181C667.652 18.666 667.721 18.809 667.814 19.002C667.867 19.1114 667.928 19.2372 667.999 19.3898L668.016 19.0634V19.0615C668.025 18.9079 668.03 18.81 668.03 18.7111V7.07877C668.034 6.70201 667.975 6.32706 667.856 5.96805C667.569 5.16165 666.833 5.11653 666.044 5.13765L665.997 4.46661L665.989 4.36101H671.098V5.10213L670.917 5.12133C670.787 5.13477 670.659 5.14821 670.531 5.15013C669.806 5.15013 669.375 5.53797 669.22 6.17733C669.13 6.59397 669.09 7.01925 669.1 7.44454C669.092 13.9018 669.092 20.3591 669.1 26.8164L669.091 27.6929ZM599.126 4.32069H586.382V12.3981L587.192 12.353C587.192 12.2071 587.188 12.065 587.185 11.9249C587.174 11.6596 587.176 11.3931 587.192 11.1281C587.316 9.51526 587.632 7.93509 588.544 6.53637C589.095 5.68965 589.817 5.10309 590.999 5.34597C591.019 5.44005 591.033 5.53413 591.04 5.63013C591.048 12.2599 591.048 18.8849 591.04 25.505C591.039 26.4362 590.626 26.8106 589.636 26.874C589.493 26.8836 589.356 26.8961 589.21 26.9105L588.976 26.9325L589.03 27.69H596.466C596.484 27.5642 596.494 27.4375 596.496 27.3108C596.485 27.1793 596.467 27.0486 596.441 26.9191C594.501 26.7501 594.409 26.6541 594.409 24.7985V5.36325C595.37 5.14437 596.158 5.38725 596.601 6.10917C597.175 7.01071 597.629 7.97715 597.955 8.9863C598.177 9.73222 598.274 10.5127 598.373 11.3018C598.416 11.6503 598.46 12.0007 598.515 12.3501H599.126V4.32069ZM540.939 26.9057V27.6775H533.539V26.9777C533.556 26.9668 533.572 26.9553 533.587 26.9431C533.617 26.9201 533.643 26.8989 533.671 26.8951C535.372 26.754 535.531 26.5879 535.531 24.9405V5.36422C534.413 5.11365 533.707 5.59845 533.155 6.35782C532.305 7.53382 531.958 8.8855 531.769 10.2785C531.706 10.7421 531.668 11.2077 531.629 11.6849C531.61 11.9037 531.592 12.1245 531.571 12.3482H530.884V4.35333H543.662V12.3453L543.012 12.3895C542.953 12.0195 542.897 11.6489 542.846 11.2778C542.726 10.4311 542.608 9.60166 542.393 8.79622C542.139 7.93616 541.766 7.11232 541.286 6.34629C540.796 5.52453 540.008 5.11653 538.871 5.35365V24.8225C538.871 26.585 539.067 26.7828 540.939 26.9057ZM520.477 27.1265C520.565 26.9153 520.657 26.6983 520.862 26.5658L520.927 26.6052C521.174 26.753 521.437 26.9124 521.705 27.0641C525.956 29.4698 530.61 27.0017 530.757 22.3025C530.865 18.9031 529.392 16.2852 526.701 14.1953L526.647 14.154C525.594 13.3361 524.537 12.5162 523.546 11.6321C522.3 10.5194 521.746 9.13222 521.976 7.47429C522.215 5.75301 523.5 4.84485 525.273 5.20389C526.218 5.39685 526.977 5.89221 527.421 6.69477C527.844 7.4392 528.16 8.23524 528.361 9.06118C528.527 9.8071 528.602 10.5761 528.678 11.3623C528.712 11.706 528.746 12.0535 528.788 12.4039L529.448 12.3588V4.36293C528.882 4.25925 528.738 4.57701 528.593 4.89669C528.503 5.09829 528.411 5.29989 528.214 5.39781L528.114 5.32869C527.962 5.22309 527.801 5.11173 527.639 5.00421C524.554 2.94693 520.364 4.35237 519.612 7.79302C519.368 8.91237 519.427 10.1565 519.646 11.2913C520.067 13.4532 521.646 14.9085 523.341 16.2641C524.491 17.1828 525.647 18.1236 526.63 19.1988C528.028 20.7281 528.421 22.5953 527.969 24.5815C527.594 26.2394 526.185 27.1092 524.443 26.825C523.453 26.6618 522.566 26.2365 522.039 25.4378C521.465 24.5923 521.018 23.674 520.709 22.7095C520.504 22.0471 520.437 21.3463 520.369 20.6282C520.339 20.3085 520.309 19.9869 520.265 19.6625L519.605 19.7133V27.6938C520.199 27.786 520.334 27.4653 520.477 27.1265ZM608.076 5.09733V4.33605H615.232V5.06661C615.218 5.07429 615.205 5.08389 615.192 5.09253C615.164 5.11173 615.136 5.13093 615.108 5.13381C613.585 5.22693 613.348 5.46789 613.348 6.94341V22.3341C613.363 22.8084 613.345 23.2817 613.294 23.753C612.851 26.874 609.65 28.7181 606.541 27.6727C604.242 26.8999 602.79 23.7645 603.733 21.6122C604.151 20.6589 605.115 20.1482 606.04 20.3911C606.842 20.6013 607.253 21.3348 607.159 22.386C607.069 23.3873 606.653 23.8039 605.282 24.2733C605.088 25.6433 606.699 27.4289 608.724 26.6964C609.18 26.5313 609.61 25.9351 609.758 25.4522C609.971 24.7581 609.974 23.9921 609.977 23.2538V23.2087C609.987 19.6308 609.983 16.0529 609.98 12.4749V12.426C609.978 10.6532 609.977 8.88038 609.977 7.10757C609.99 5.36613 609.913 5.28165 608.076 5.09733ZM500.485 4.34757V5.12325L500.648 5.13285C500.752 5.14053 500.848 5.14629 500.943 5.14917C502.093 5.18373 502.481 5.50821 502.481 6.58629C502.494 12.857 502.494 19.1258 502.481 25.3946C502.48 26.4698 502.069 26.8298 500.958 26.8711C500.813 26.8769 500.667 26.8893 500.521 26.9009L500.319 26.9172V27.6833H512.524V19.7076H511.854C511.818 20.0244 511.789 20.3402 511.76 20.6522C511.698 21.3223 511.638 21.9789 511.506 22.6212C510.766 26.2029 508.979 27.0929 505.769 26.6205V6.99238C505.771 5.45446 505.948 5.26726 507.551 5.12517C507.58 5.12326 507.604 5.09829 507.639 5.06469C507.656 5.04741 507.675 5.02725 507.699 5.00709L507.694 4.92645L507.659 4.34757H500.485Z" fill="#84848E"/>
<g clip-path="url(#clip0_237_19)">
<path fill-rule="evenodd" clip-rule="evenodd" d="M824.592 4L816.903 5.34712L816.879 5.85865C818.809 6.16442 819.344 7.38558 819.344 9.02692C819.354 11.1529 819.384 13.2798 819.414 15.4077V15.4106C819.438 17.0356 819.461 18.6615 819.475 20.2856C819.488 21.9962 819.485 23.7048 819.48 25.5C819.478 26.4298 819.475 27.3827 819.475 28.3702C820.137 28.4356 820.8 28.5154 821.463 28.5952C823.01 28.7827 824.559 28.9702 826.104 28.9702C833.337 28.9125 837.671 23.0423 835.548 16.351C834.214 12.1529 830.705 10.3058 826.298 11.4769C825.964 11.5663 825.628 11.6462 825.216 11.7442C825.026 11.7885 824.821 11.8375 824.592 11.8933V4ZM824.644 20.3971H824.584C824.584 19.8769 824.579 19.3567 824.574 18.8365C824.563 17.5731 824.552 16.3106 824.608 15.0538C824.64 14.374 824.945 13.1788 825.247 13.1452C826.259 12.9878 827.296 13.1275 828.224 13.5462C828.939 13.9269 829.518 14.8587 829.792 15.6606C830.912 18.8329 830.728 22.2965 829.28 25.3433C828.892 26.1506 828.292 26.8475 827.541 27.3663C825.89 28.4769 824.683 27.8471 824.644 25.9385C824.625 24.7077 824.631 23.476 824.637 22.2442C824.64 21.6288 824.644 21.0135 824.644 20.3971ZM786.656 4.64135H766.035L765.765 5.23269C769.238 5.46538 769.524 7.75962 769.524 10.1606C769.548 14.4769 769.552 18.8048 769.504 23.1375C769.48 25.3471 769.095 27.3933 766.194 27.7365C766.137 27.7413 766.094 27.8654 766.039 28.0202C766.009 28.1087 765.976 28.1959 765.939 28.2817H778.971C778.611 27.9952 778.191 27.7308 777.779 27.4721C776.903 26.9202 776.063 26.3923 775.907 25.7173C775.455 23.7654 775.321 21.7442 775.187 19.7269C775.133 18.9221 775.079 18.1183 775.006 17.3202C778.792 17.0192 778.792 17.0192 781.849 20.8856V12.4346C777.983 16.0913 777.983 16.0913 775.402 15.7096V6.29423C780.444 5.40865 784.382 6.19423 786.088 11.599C786.902 9.85962 786.805 8.2 786.709 6.58365C786.671 5.92981 786.633 5.28269 786.656 4.64135ZM802.438 19.7856C802.438 25.2327 798.703 29.0038 793.281 29C787.747 29 784.274 25.5115 784.301 19.9769C784.33 14.5692 788.097 10.8548 793.563 10.8519C798.961 10.8519 802.43 14.3519 802.438 19.7865V19.7856ZM797.242 19.9394C797.116 19.4111 796.995 18.8816 796.88 18.351C796.546 16.8413 796.186 15.2173 795.607 13.6606C795.325 12.8971 794.051 12.0615 793.225 12.0538C792.399 12.0462 791.137 12.8933 790.843 13.6452C789.291 17.7865 789.256 22.0423 791.058 26.1106C791.415 26.9125 792.785 27.8663 793.567 27.774C794.491 27.6644 795.707 26.6529 796.047 25.7673C796.506 24.5788 796.701 23.3077 796.922 21.8769C797.017 21.2615 797.116 20.6173 797.242 19.9394ZM843.332 19.0606H853.918C854.375 13.6452 850.508 10.1452 845.221 10.9923C840.661 11.7288 837.917 14.8856 837.651 19.7096C837.449 23.3663 839.43 26.7096 842.657 28.1596C846.003 29.6635 850.262 29.1106 852.887 26.7971C853.263 26.3873 853.605 25.9498 853.91 25.4885C846.563 27.5192 842.14 24.7865 843.332 19.0606ZM848.632 16.2337C848.706 16.7183 848.782 17.2269 848.881 17.7625H842.693C842.881 17.25 843.046 16.7452 843.207 16.2529C843.584 15.0981 843.938 14.0154 844.515 13.0644C845.559 11.351 847.353 11.5567 848.032 13.4154C848.339 14.2779 848.478 15.2029 848.632 16.2327V16.2337ZM867.4 15.5817C867.171 15.0673 866.943 14.5567 866.561 14.2173C865.58 13.3779 864.449 12.4462 863.242 12.2096C862.496 12.0615 861.032 12.9731 860.738 13.7058C860.444 14.4394 860.892 15.9433 861.555 16.4769C862.417 17.1615 863.485 17.6067 864.545 18.0471C864.949 18.2163 865.353 18.3837 865.743 18.5654C868.55 19.8471 869.47 21.1606 869.284 23.6712C869.105 26.0952 867.498 28.2135 864.759 28.5231C862.617 28.7644 860.48 28.5788 858.343 28.3942C857.746 28.3423 857.15 28.2904 856.553 28.2481C856.157 28.2173 855.553 27.5606 855.513 27.1519C855.42 26.1769 855.436 25.1923 855.453 24.2058V24.2048C855.46 23.8202 855.466 23.4365 855.466 23.0538L855.951 22.8779C856.056 23.049 856.164 23.2192 856.272 23.3885C856.502 23.7481 856.73 24.1077 856.935 24.4808C857.82 26.0798 859.043 27.2865 861.012 27.4462C862.52 27.5721 863.79 27.0654 864.294 25.5615C864.798 24.0577 864.068 23.0683 862.75 22.4346C862.05 22.1058 861.333 21.8269 860.616 21.549C860.112 21.3568 859.611 21.1558 859.114 20.9462C857.086 20.0837 855.76 18.7096 855.768 16.4394C855.776 14.1683 857.002 12.576 859.074 11.649C861.802 10.4279 864.632 10.7673 867.41 11.5115C867.612 11.5773 867.796 11.6878 867.946 11.8343C868.095 11.9808 868.207 12.1591 868.272 12.3548C868.341 13.2971 868.33 14.2462 868.319 15.1952C868.314 15.5449 868.312 15.8945 868.311 16.2442L867.752 16.3135C867.622 16.0808 867.511 15.8308 867.4 15.5817ZM817.792 11.4577C815.062 10.1913 813.561 10.775 810.385 14.5308L810.381 10.9279L802.708 12.374C805.189 13.1413 805.237 14.9577 805.237 16.7673C805.253 18.925 805.253 21.0875 805.237 23.2558C805.235 23.424 805.236 23.5942 805.237 23.7644C805.243 25.625 805.25 27.5144 802.704 28.2981H813.521L813.886 27.8317C810.446 27.8423 810.432 25.8154 810.418 23.8087C810.416 23.5933 810.415 23.3769 810.409 23.1644C810.369 21.6378 810.357 20.1107 810.373 18.5837C810.413 15.2827 811.56 14.4808 814.887 15.3971C815.147 15.4663 815.403 15.551 815.712 15.6519L816.097 15.7788C816.661 14.338 817.226 12.8976 817.792 11.4577Z" fill="#84848E"/>
</g>
<g clip-path="url(#clip1_237_19)">
<path fill-rule="evenodd" clip-rule="evenodd" d="M987.475 17.2989C987.361 18.2857 987.247 19.2717 987.032 20.2259C985.637 26.5331 979.632 29.5782 973.337 27.1859C970.577 26.1443 968.976 24.1024 968.197 21.4614C967.151 17.9975 967.13 14.3223 968.137 10.8477C969.467 6.23199 972.807 3.88767 977.823 4.00383C982.761 4.11903 986.054 6.71967 987.049 11.4054C987.27 12.4182 987.376 13.4512 987.484 14.4966C987.533 14.9757 987.582 15.4566 987.643 15.9395C987.581 16.3907 987.528 16.8438 987.475 17.2979V17.2989ZM983.148 16.0144H983.462C983.395 16.6902 983.338 17.368 983.282 18.0457C983.148 19.6307 983.015 21.2185 982.752 22.792C982.21 25.7718 980.639 27.0736 977.931 27.1523C974.814 27.2435 973.101 26.1059 972.411 23.0694C971.333 18.3437 971.333 13.4499 972.411 8.72415C973.053 5.84319 974.625 4.79391 977.578 4.79391C980.428 4.80159 981.995 6.01695 982.718 8.82687C982.944 9.62367 983.088 10.4416 983.148 11.2653C983.18 12.3184 983.169 13.3744 983.159 14.4304C983.154 14.9584 983.149 15.4864 983.149 16.0144H983.148ZM1001.03 16.047C1005 16.3984 1005.33 18.8358 1005.67 21.2982V21.3001C1005.74 21.8041 1005.83 22.3053 1005.91 22.8064V22.8073C1005.98 23.1894 1006.05 23.5715 1006.1 23.9536C1006.13 24.1331 1006.16 24.3155 1006.18 24.4989C1006.41 26.1981 1006.64 27.8944 1009.89 26.8057L1009.44 27.6313C1008.96 27.6313 1008.48 27.6342 1008 27.6371C1006.45 27.6467 1004.9 27.6553 1003.35 27.5699C1003.11 27.5699 1002.82 26.6733 1002.72 26.1645C1002.5 24.9481 1002.31 23.7261 1002.12 22.503C1002.04 21.9558 1001.95 21.4086 1001.86 20.8614C1001.12 16.407 1000.36 15.8781 995.483 16.5145V26.8883L998.639 27.1648V27.5123H988.199L988.159 27.2099L991.337 26.9459V5.19423L988.181 4.67775L988.221 4.46271C989.541 4.46271 990.863 4.44639 992.184 4.42911C995.288 4.38879 998.391 4.34943 1001.48 4.52799C1004.49 4.70559 1005.81 6.18111 1006.13 8.56959C1006.56 12.0131 1005.59 14.0416 1002.86 15.2819C1002.69 15.3539 1002.52 15.4249 1002.28 15.5248H1002.28C1002 15.6419 1001.62 15.7993 1001.03 16.0461L1001.03 16.047ZM995.543 5.06655V15.5555C996.083 15.5325 996.635 15.5622 997.183 15.591C998.983 15.687 1000.72 15.7811 1001.71 13.9773C1002.36 12.855 1002.69 11.5946 1002.69 10.3134C1002.69 9.0322 1002.36 7.77181 1001.71 6.64959C1000.7 4.87743 998.992 4.95903 997.22 5.04351C996.66 5.07039 996.095 5.09727 995.543 5.06655ZM1073.65 4.71519L1077 5.19519L1077.02 26.9257L1073.65 27.2061V27.5574H1091.04C1091.18 25.8006 1091.32 24.0342 1091.46 22.264V22.2544L1091.7 19.1757L1091.09 19.0643C1090.86 19.6624 1090.63 20.2624 1090.4 20.8624C1089.79 22.4877 1089.17 24.1129 1088.48 25.7104C1088.25 26.2269 1087.62 26.9171 1087.13 26.9497C1085.7 27.0553 1084.25 27.0381 1082.82 27.0208C1082.28 27.0141 1081.74 27.0083 1081.21 27.0083V15.7283H1085.01L1085.59 20.3305L1085.59 20.3689L1085.59 20.3709L1085.99 20.3171V10.4848L1085.56 10.4473C1085.45 11.3267 1085.33 12.2003 1085.22 13.072L1084.99 14.8038H1081.15V5.05407C1081.71 5.05407 1082.25 5.06175 1082.79 5.06943C1084.02 5.08863 1085.21 5.10591 1086.38 5.02527C1087.73 4.93407 1088.27 5.48799 1088.59 6.67839C1088.95 7.99071 1089.41 9.27615 1089.87 10.5606L1089.87 10.5616L1089.87 10.5645C1090.06 11.0915 1090.25 11.6176 1090.43 12.1456L1090.86 11.9891V4.40895H1073.68L1073.65 4.71519ZM1055.13 8.78655C1055.08 9.25695 1055.06 9.58047 1055.05 9.90207V26.6848L1058.4 27.2224V27.5315H1050.6L1050.54 27.255L1053.96 26.6761V8.75295C1053.96 5.62335 1053.96 5.62335 1051.18 4.31007C1051.72 4.31007 1052.26 4.30335 1052.8 4.29567C1054.25 4.27647 1055.71 4.25823 1057.15 4.37631C1057.66 4.41759 1058.2 5.20191 1058.55 5.75199C1060.5 8.69727 1062.42 11.6531 1064.34 14.608C1065.19 15.9166 1066.05 17.2244 1066.9 18.5315C1067.06 18.7869 1067.23 19.0192 1067.46 19.3254V19.3264C1067.6 19.5155 1067.77 19.7334 1067.96 20.0022V5.29407L1064.89 4.79679L1064.93 4.43679H1072.35L1072.41 4.73055L1069.12 5.34591V27.639L1068.52 27.8166C1064.21 21.3117 1059.87 14.7731 1055.22 7.73151C1055.18 8.15775 1055.15 8.49951 1055.13 8.78559V8.78655ZM1035.34 5.14047L1038.95 4.72767L1038.9 4.46271H1028.37V4.74879L1031.43 5.21631V10.4214C1031.42 13.8477 1031.42 17.2605 1031.43 20.7184C1031.43 25.9216 1033.31 27.7609 1038.78 27.8934C1039.71 27.9347 1040.65 27.9021 1041.57 27.7945C1045.43 27.2445 1046.81 25.7977 1046.85 22.0086C1046.87 19.4809 1046.86 16.9542 1046.86 14.4285V14.4265C1046.85 13.1651 1046.85 11.9037 1046.85 10.6432V5.34399L1049.86 4.74111L1049.79 4.40607H1042.97L1042.91 4.75359L1045.66 5.29887C1045.66 6.94911 1045.66 8.60127 1045.67 10.2563V10.2582C1045.68 14.6358 1045.69 19.0259 1045.62 23.4131C1045.59 24.9971 1044.51 26.104 1042.79 26.344C1041.66 26.5252 1040.51 26.571 1039.37 26.4803C1036.27 26.1616 1035.38 25.1939 1035.34 22.2189C1035.32 19.7833 1035.33 17.3497 1035.33 14.9152C1035.34 13.6979 1035.34 12.4806 1035.34 11.2624V5.14047ZM1012.72 27.1821L1016.23 26.9257V5.28543C1012.44 4.55391 1012.32 4.62015 1011.16 7.94271C1010.7 9.24463 1010.22 10.541 1009.72 11.8317C1009.7 11.8931 1009.63 11.9373 1009.5 12.015C1009.42 12.063 1009.31 12.1235 1009.19 12.208V4.40511H1027.32V12.0265L1026.89 12.2205L1025.36 7.84767C1024.82 6.29823 1024.54 5.49375 1023.97 5.14719C1023.34 4.77279 1022.37 4.93215 1020.35 5.26527V26.872L1023.79 27.2061L1023.77 27.5085H1012.72V27.1821ZM959.406 27.1859L955.776 26.9334L955.716 15.6918H959.543L959.869 17.7251L960.289 20.3497L960.599 20.2758V10.5712C960.337 11.1347 960.229 11.7846 960.129 12.3971C960.004 13.1555 959.889 13.8563 959.5 14.2662C959.016 14.7769 958.027 14.8518 957.037 14.9286C956.593 14.9613 956.15 14.9958 955.751 15.0678V5.05023C956.267 5.05023 956.774 5.05983 957.271 5.06943C958.355 5.09151 959.396 5.11263 960.409 5.02527C961.885 4.89663 962.613 5.35167 962.992 6.76095C963.336 8.04447 963.807 9.29823 964.277 10.551C964.484 11.1011 964.69 11.6512 964.887 12.2041L965.317 12.0429V4.46271H948.415V4.76511L951.596 5.13663V26.9209L948.307 27.2349L948.367 27.5411H959.406V27.1859Z" fill="#84848E"/>
</g>
<path d="M1254.87 7.19464V25.8729H1264.41C1267.08 25.8729 1268.62 25.4669 1269.75 24.519C1271.15 23.3011 1271.85 21.1363 1271.85 16.5347C1271.85 11.9331 1271.15 9.76736 1269.75 8.55043C1268.62 7.60254 1267.08 7.19657 1264.41 7.19657H1254.87V7.19464ZM1267.92 16.5338C1267.92 20.5934 1267.64 21.5413 1266.8 22.0823C1266.24 22.4882 1265.54 22.6232 1264.13 22.6232H1258.8V10.3093H1264.13C1265.54 10.3093 1266.24 10.3093 1266.8 10.8502C1267.64 11.5272 1267.92 12.4741 1267.92 16.5347V16.5338ZM1276.77 30H1248.77V3H1276.77V30ZM1225.89 10.3083V7.19464H1242.45V13.1491H1238.94V10.3093H1232.2V14.7749H1237.54V17.7526H1232.2V22.7601H1239.08V19.5115H1242.59V25.8729H1225.89V22.7582H1228.56V10.3083H1225.89ZM1210.87 20.9994C1210.87 23.0292 1211.01 24.519 1211.29 25.7359H1215.08C1214.94 24.789 1214.8 23.0301 1214.8 20.7294C1214.66 18.0226 1213.82 17.6166 1211.85 17.2097C1214.1 16.8047 1215.08 15.8568 1215.08 12.4731C1215.08 9.76639 1214.66 8.6835 1213.82 8.00754C1213.26 7.46561 1212.28 7.19561 1210.73 7.19561H1198.94V25.8719H1202.87V18.5636H1208.35C1209.47 18.5636 1209.89 18.6986 1210.31 18.9695C1210.73 19.2395 1210.87 19.6465 1210.87 20.9994ZM1202.87 15.5859V10.4443H1209.19C1210.03 10.4443 1210.31 10.5793 1210.45 10.7143C1210.73 10.9862 1211.01 11.3922 1211.01 13.016C1211.01 14.6399 1210.73 15.1809 1210.45 15.4518C1210.31 15.5868 1210.03 15.7218 1209.19 15.7218L1202.87 15.5868V15.5859ZM1220.7 30H1192.63V3H1220.63V30H1220.7ZM1185.33 22.7582V25.8719H1171.99V22.7582H1176.77V10.3083H1171.99V7.19464H1185.33V10.3074H1180.56V22.7582H1185.33ZM1162.8 7.19464H1159.15L1156.49 21.9482L1153.4 8.2785C1153.26 7.33061 1152.84 7.19561 1152 7.19561H1150.03C1149.19 7.19561 1148.77 7.46561 1148.63 8.2785L1145.54 21.9473L1142.87 7.19464H1138.94L1142.73 24.923C1142.87 25.735 1143.15 25.8709 1144.14 25.8709H1146.8C1147.64 25.8709 1147.93 25.7359 1148.21 24.923L1151.15 12.0662L1154.1 24.924C1154.24 25.7359 1154.52 25.8719 1155.5 25.8719H1158.03C1158.87 25.8719 1159.29 25.7369 1159.43 24.924L1162.8 7.19561V7.19464ZM1164.77 30H1136.7V3H1164.7V30H1164.77Z" fill="#84848E"/>
<defs>
<clipPath id="clip0_237_19">
<rect width="105" height="25" fill="white" transform="translate(765 4)"/>
</clipPath>
<clipPath id="clip1_237_19">
<rect width="144" height="24" fill="white" transform="translate(948 4)"/>
</clipPath>
</defs>
</svg>
