<svg width="32" height="26" viewBox="0 0 32 26" fill="none" xmlns="http://www.w3.org/2000/svg">
<path d="M27.5901 14.222C27.3253 14.222 27.0604 14.222 26.825 14.222C18.7327 14.222 10.6404 14.222 2.57748 14.222C2.34207 14.222 2.10666 14.222 1.87124 14.222C1.22386 14.1338 0.723605 13.6041 0.723605 12.9567C0.723605 12.3093 1.19443 11.7502 1.87124 11.6619C2.10666 11.6325 2.34207 11.6325 2.57748 11.6325C10.6992 11.6325 18.821 11.6325 26.9721 11.6325C27.2075 11.6325 27.443 11.6325 27.8255 11.6325C27.5901 11.3677 27.443 11.1911 27.2664 11.044C24.2943 8.21901 21.3222 5.39406 18.3501 2.59853C17.4673 1.77458 17.3202 1.00949 17.9382 0.391534C18.5267 -0.226424 19.2624 -0.108718 20.1157 0.715226C23.6469 4.09929 27.2075 7.45392 30.7387 10.838C32.1512 12.1916 32.1512 13.6924 30.7387 15.046C27.1487 18.43 23.5586 21.8141 19.998 25.2276C19.8509 25.3747 19.7038 25.4924 19.5566 25.6101C19.027 25.9927 18.3501 25.9044 17.9087 25.463C17.4673 25.0216 17.4085 24.3448 17.791 23.8151C17.9382 23.6091 18.1442 23.4326 18.3207 23.256C21.2634 20.431 24.2355 17.6355 27.1781 14.84C27.3547 14.6929 27.5312 14.5457 27.7078 14.3986C27.6489 14.3397 27.6195 14.2809 27.5901 14.222Z" fill="black"/>
</svg>
